<svg xmlns="http://www.w3.org/2000/svg" viewBox="0 0 64 116" width="64" height="116">
	<title>Silver white enamel octagon with tank</title>
	<defs>
		<radialGradient id="m036-metal" cx="35%" cy="28%" r="80%">
			<stop offset="0" stop-color="#ffffff"/>
			<stop offset="0.5" stop-color="#bfc5cc"/>
			<stop offset="1" stop-color="#6b737c"/>
		</radialGradient>
		<linearGradient id="m036-rim" x1="0" y1="0" x2="1" y2="1">
			<stop offset="0" stop-color="#ffffff"/>
			<stop offset="1" stop-color="#6b737c"/>
		</linearGradient>
		<linearGradient id="m036-gloss" x1="0" y1="0" x2="0" y2="1">
			<stop offset="0" stop-color="#fff" stop-opacity="0.35"/>
			<stop offset="0.45" stop-color="#fff" stop-opacity="0"/>
		</linearGradient>
		<linearGradient id="m036-fold" x1="0" y1="0" x2="1" y2="0">
			<stop offset="0" stop-color="#000" stop-opacity="0.35"/>
			<stop offset="0.2" stop-color="#000" stop-opacity="0"/>
			<stop offset="0.8" stop-color="#000" stop-opacity="0"/>
			<stop offset="1" stop-color="#000" stop-opacity="0.35"/>
		</linearGradient>
		<pattern id="m036-weave" width="1.6" height="1.6" patternUnits="userSpaceOnUse">
			<rect width="0.6" height="1.6" fill="#000" opacity="0.12"/>
		</pattern>
		<clipPath id="m036-ribbon"><polygon points="12,0 52,0 42,46 22,46"/></clipPath>
		<filter id="m036-shadow" x="-30%" y="-30%" width="160%" height="160%">
			<feDropShadow dx="0" dy="1.5" stdDeviation="1.2" flood-color="#000" flood-opacity="0.55"/>
		</filter>
	</defs>
	<g>
		<g clip-path="url(#m036-ribbon)">
			<rect x="12" y="0" width="10.91" height="48" fill="#e6dfcc"/><rect x="22.91" y="0" width="3.64" height="48" fill="#3f6fb0"/><rect x="26.55" y="0" width="10.91" height="48" fill="#e6dfcc"/><rect x="37.45" y="0" width="3.64" height="48" fill="#3f6fb0"/><rect x="41.09" y="0" width="10.91" height="48" fill="#e6dfcc"/>
			<rect x="12" y="0" width="40" height="48" fill="url(#m036-weave)"/>
			<rect x="12" y="0" width="40" height="48" fill="url(#m036-fold)"/>
		</g>
		<ellipse cx="32" cy="50" rx="6" ry="4.5" fill="none" stroke="url(#m036-rim)" stroke-width="2"/>
		<g transform="translate(32 84)" filter="url(#m036-shadow)">
			<path d="M9.57,-23.1 L23.1,-9.57 L23.1,9.57 L9.57,23.1 L-9.57,23.1 L-23.1,9.57 L-23.1,-9.57 L-9.57,-23.1 Z" fill="url(#m036-metal)" stroke="#3d434a" stroke-width="1"/><path d="M9.57,-23.1 L23.1,-9.57 L23.1,9.57 L9.57,23.1 L-9.57,23.1 L-23.1,9.57 L-23.1,-9.57 L-9.57,-23.1 Z" transform="scale(0.72)" fill="#ece8dc" stroke="#6b737c" stroke-width="1"/><path d="M9.57,-23.1 L23.1,-9.57 L23.1,9.57 L9.57,23.1 L-9.57,23.1 L-23.1,9.57 L-23.1,-9.57 L-9.57,-23.1 Z" transform="scale(0.72)" fill="url(#m036-gloss)"/>
			<g transform="scale(1.15)" fill="#3d434a" color="#3d434a"><rect x="-11" y="2" width="22" height="6" rx="3"/><rect x="-9" y="-2.5" width="18" height="4" rx="1"/><rect x="-5" y="-7" width="9" height="4.5" rx="1.5"/><rect x="3" y="-5.6" width="10" height="1.6" rx="0.5"/></g>
		</g>
	</g>
</svg>
