<svg xmlns="http://www.w3.org/2000/svg" viewBox="0 0 64 116" width="64" height="116">
	<title>Gold shield with star</title>
	<defs>
		<radialGradient id="m089-metal" cx="35%" cy="28%" r="80%">
			<stop offset="0" stop-color="#fff1bf"/>
			<stop offset="0.5" stop-color="#d6a640"/>
			<stop offset="1" stop-color="#86601a"/>
		</radialGradient>
		<linearGradient id="m089-rim" x1="0" y1="0" x2="1" y2="1">
			<stop offset="0" stop-color="#fff1bf"/>
			<stop offset="1" stop-color="#86601a"/>
		</linearGradient>
		<linearGradient id="m089-gloss" x1="0" y1="0" x2="0" y2="1">
			<stop offset="0" stop-color="#fff" stop-opacity="0.35"/>
			<stop offset="0.45" stop-color="#fff" stop-opacity="0"/>
		</linearGradient>
		<linearGradient id="m089-fold" x1="0" y1="0" x2="1" y2="0">
			<stop offset="0" stop-color="#000" stop-opacity="0.35"/>
			<stop offset="0.2" stop-color="#000" stop-opacity="0"/>
			<stop offset="0.8" stop-color="#000" stop-opacity="0"/>
			<stop offset="1" stop-color="#000" stop-opacity="0.35"/>
		</linearGradient>
		<pattern id="m089-weave" width="1.6" height="1.6" patternUnits="userSpaceOnUse">
			<rect width="0.6" height="1.6" fill="#000" opacity="0.12"/>
		</pattern>
		<clipPath id="m089-ribbon"><polygon points="12,0 52,0 52,40 32,47 12,40"/></clipPath>
		<filter id="m089-shadow" x="-30%" y="-30%" width="160%" height="160%">
			<feDropShadow dx="0" dy="1.5" stdDeviation="1.2" flood-color="#000" flood-opacity="0.55"/>
		</filter>
	</defs>
	<g>
		<g clip-path="url(#m089-ribbon)">
			<rect x="12" y="0" width="4.44" height="48" fill="#1c1c1c"/><rect x="16.44" y="0" width="8.89" height="48" fill="#56622e"/><rect x="25.33" y="0" width="13.33" height="48" fill="#f4f1e8"/><rect x="38.67" y="0" width="8.89" height="48" fill="#56622e"/><rect x="47.56" y="0" width="4.44" height="48" fill="#1c1c1c"/>
			<rect x="12" y="0" width="40" height="48" fill="url(#m089-weave)"/>
			<rect x="12" y="0" width="40" height="48" fill="url(#m089-fold)"/>
		</g>
		<rect x="20" y="44" width="24" height="6" rx="1.5" fill="url(#m089-rim)" stroke="#4f3a0c" stroke-width="0.8"/><circle cx="32" cy="53" r="3" fill="none" stroke="url(#m089-rim)" stroke-width="1.8"/>
		<g transform="translate(32 84)" filter="url(#m089-shadow)">
			<path d="M-21,-24 H21 V0 Q21,17 0,28 Q-21,17 -21,0 Z" fill="url(#m089-metal)" stroke="#4f3a0c" stroke-width="1"/><path d="M-21,-24 H21 V0 Q21,17 0,28 Q-21,17 -21,0 Z" transform="scale(0.82)" fill="none" stroke="#86601a" stroke-width="0.9" opacity="0.8"/>
			<g transform="scale(1.15)" fill="#4f3a0c" color="#4f3a0c"><path d="M0,-9.5 L2.23,-3.07 L9.04,-2.94 L3.61,1.17 L5.58,7.69 L0,3.8 L-5.58,7.69 L-3.61,1.17 L-9.04,-2.94 L-2.23,-3.07 Z"/></g>
		</g>
	</g>
</svg>
