<svg xmlns="http://www.w3.org/2000/svg" viewBox="0 0 64 116" width="64" height="116">
	<title>Silver sunburst with star</title>
	<defs>
		<radialGradient id="m091-metal" cx="35%" cy="28%" r="80%">
			<stop offset="0" stop-color="#ffffff"/>
			<stop offset="0.5" stop-color="#bfc5cc"/>
			<stop offset="1" stop-color="#6b737c"/>
		</radialGradient>
		<linearGradient id="m091-rim" x1="0" y1="0" x2="1" y2="1">
			<stop offset="0" stop-color="#ffffff"/>
			<stop offset="1" stop-color="#6b737c"/>
		</linearGradient>
		<linearGradient id="m091-gloss" x1="0" y1="0" x2="0" y2="1">
			<stop offset="0" stop-color="#fff" stop-opacity="0.35"/>
			<stop offset="0.45" stop-color="#fff" stop-opacity="0"/>
		</linearGradient>
		<linearGradient id="m091-fold" x1="0" y1="0" x2="1" y2="0">
			<stop offset="0" stop-color="#000" stop-opacity="0.35"/>
			<stop offset="0.2" stop-color="#000" stop-opacity="0"/>
			<stop offset="0.8" stop-color="#000" stop-opacity="0"/>
			<stop offset="1" stop-color="#000" stop-opacity="0.35"/>
		</linearGradient>
		<pattern id="m091-weave" width="1.6" height="1.6" patternUnits="userSpaceOnUse">
			<rect width="0.6" height="1.6" fill="#000" opacity="0.12"/>
		</pattern>
		<clipPath id="m091-ribbon"><polygon points="12,0 52,0 52,40 32,47 12,40"/></clipPath>
		<filter id="m091-shadow" x="-30%" y="-30%" width="160%" height="160%">
			<feDropShadow dx="0" dy="1.5" stdDeviation="1.2" flood-color="#000" flood-opacity="0.55"/>
		</filter>
	</defs>
	<g>
		<g clip-path="url(#m091-ribbon)">
			<rect x="12" y="0" width="8.89" height="48" fill="#e6dfcc"/><rect x="20.89" y="0" width="8.89" height="48" fill="#24406b"/><rect x="29.78" y="0" width="4.44" height="48" fill="#e0b23a"/><rect x="34.22" y="0" width="8.89" height="48" fill="#24406b"/><rect x="43.11" y="0" width="8.89" height="48" fill="#e6dfcc"/>
			<rect x="12" y="0" width="40" height="48" fill="url(#m091-weave)"/>
			<rect x="12" y="0" width="40" height="48" fill="url(#m091-fold)"/>
		</g>
		<circle cx="32" cy="50" r="4" fill="none" stroke="url(#m091-rim)" stroke-width="2"/>
		<g transform="translate(32 84)" filter="url(#m091-shadow)">
			<path d="M0,-27 L3.71,-18.63 L10.33,-24.94 L10.56,-15.8 L19.09,-19.09 L15.8,-10.56 L24.94,-10.33 L18.63,-3.71 L27,0 L18.63,3.71 L24.94,10.33 L15.8,10.56 L19.09,19.09 L10.56,15.8 L10.33,24.94 L3.71,18.63 L0,27 L-3.71,18.63 L-10.33,24.94 L-10.56,15.8 L-19.09,19.09 L-15.8,10.56 L-24.94,10.33 L-18.63,3.71 L-27,0 L-18.63,-3.71 L-24.94,-10.33 L-15.8,-10.56 L-19.09,-19.09 L-10.56,-15.8 L-10.33,-24.94 L-3.71,-18.63 Z" fill="url(#m091-metal)" stroke="#3d434a" stroke-width="1"/><path d="M0,-27 L3.71,-18.63 L10.33,-24.94 L10.56,-15.8 L19.09,-19.09 L15.8,-10.56 L24.94,-10.33 L18.63,-3.71 L27,0 L18.63,3.71 L24.94,10.33 L15.8,10.56 L19.09,19.09 L10.56,15.8 L10.33,24.94 L3.71,18.63 L0,27 L-3.71,18.63 L-10.33,24.94 L-10.56,15.8 L-19.09,19.09 L-15.8,10.56 L-24.94,10.33 L-18.63,3.71 L-27,0 L-18.63,-3.71 L-24.94,-10.33 L-15.8,-10.56 L-19.09,-19.09 L-10.56,-15.8 L-10.33,-24.94 L-3.71,-18.63 Z" transform="scale(0.82)" fill="none" stroke="#6b737c" stroke-width="0.9" opacity="0.8"/><circle r="11" fill="url(#m091-metal)" stroke="#3d434a" stroke-width="0.8"/><circle r="9.2" fill="none" stroke="#6b737c" stroke-width="0.6"/>
			<g transform="scale(0.78)" fill="#3d434a" color="#3d434a"><path d="M0,-9.5 L2.23,-3.07 L9.04,-2.94 L3.61,1.17 L5.58,7.69 L0,3.8 L-5.58,7.69 L-3.61,1.17 L-9.04,-2.94 L-2.23,-3.07 Z"/></g>
		</g>
	</g>
</svg>
