<svg xmlns="http://www.w3.org/2000/svg" viewBox="0 0 64 116" width="64" height="116">
	<title>Silver red enamel cross with shell</title>
	<defs>
		<radialGradient id="m019-metal" cx="35%" cy="28%" r="80%">
			<stop offset="0" stop-color="#ffffff"/>
			<stop offset="0.5" stop-color="#bfc5cc"/>
			<stop offset="1" stop-color="#6b737c"/>
		</radialGradient>
		<linearGradient id="m019-rim" x1="0" y1="0" x2="1" y2="1">
			<stop offset="0" stop-color="#ffffff"/>
			<stop offset="1" stop-color="#6b737c"/>
		</linearGradient>
		<linearGradient id="m019-gloss" x1="0" y1="0" x2="0" y2="1">
			<stop offset="0" stop-color="#fff" stop-opacity="0.35"/>
			<stop offset="0.45" stop-color="#fff" stop-opacity="0"/>
		</linearGradient>
		<linearGradient id="m019-fold" x1="0" y1="0" x2="1" y2="0">
			<stop offset="0" stop-color="#000" stop-opacity="0.35"/>
			<stop offset="0.2" stop-color="#000" stop-opacity="0"/>
			<stop offset="0.8" stop-color="#000" stop-opacity="0"/>
			<stop offset="1" stop-color="#000" stop-opacity="0.35"/>
		</linearGradient>
		<pattern id="m019-weave" width="1.6" height="1.6" patternUnits="userSpaceOnUse">
			<rect width="0.6" height="1.6" fill="#000" opacity="0.12"/>
		</pattern>
		<clipPath id="m019-ribbon"><polygon points="12,0 52,0 52,46 32,38 12,46"/></clipPath>
		<filter id="m019-shadow" x="-30%" y="-30%" width="160%" height="160%">
			<feDropShadow dx="0" dy="1.5" stdDeviation="1.2" flood-color="#000" flood-opacity="0.55"/>
		</filter>
	</defs>
	<g>
		<g clip-path="url(#m019-ribbon)">
			<rect x="12" y="0" width="6.96" height="48" fill="#2f5a34"/><rect x="18.96" y="0" width="10.43" height="48" fill="#b8924a"/><rect x="29.39" y="0" width="5.22" height="48" fill="#56622e"/><rect x="34.61" y="0" width="10.43" height="48" fill="#b8924a"/><rect x="45.04" y="0" width="6.96" height="48" fill="#2f5a34"/>
			<rect x="12" y="0" width="40" height="48" fill="url(#m019-weave)"/>
			<rect x="12" y="0" width="40" height="48" fill="url(#m019-fold)"/>
		</g>
		<rect x="20" y="40" width="24" height="6" rx="1.5" fill="url(#m019-rim)" stroke="#3d434a" stroke-width="0.8"/><circle cx="32" cy="49" r="3" fill="none" stroke="url(#m019-rim)" stroke-width="1.8"/>
		<g transform="translate(32 84)" filter="url(#m019-shadow)">
			<path d="M-12,-26 L12,-26 L5,-5 L26,-12 L26,12 L5,5 L12,26 L-12,26 L-5,5 L-26,12 L-26,-12 L-5,-5 Z" fill="url(#m019-metal)" stroke="#3d434a" stroke-width="1"/><path d="M-12,-26 L12,-26 L5,-5 L26,-12 L26,12 L5,5 L12,26 L-12,26 L-5,5 L-26,12 L-26,-12 L-5,-5 Z" transform="scale(0.8)" fill="#a3202f" stroke="#6b737c" stroke-width="1"/><path d="M-12,-26 L12,-26 L5,-5 L26,-12 L26,12 L5,5 L12,26 L-12,26 L-5,5 L-26,12 L-26,-12 L-5,-5 Z" transform="scale(0.8)" fill="url(#m019-gloss)"/><circle r="11" fill="url(#m019-metal)" stroke="#3d434a" stroke-width="0.8"/><circle r="9.2" fill="none" stroke="#6b737c" stroke-width="0.6"/>
			<g transform="scale(0.78)" fill="#3d434a" color="#3d434a"><path d="M-3.5,-4 Q-3.5,-11 0,-12 Q3.5,-11 3.5,-4 Z"/><rect x="-3.5" y="-3" width="7" height="10"/><rect x="-4.2" y="7.5" width="8.4" height="3" rx="0.6"/></g>
		</g>
	</g>
</svg>
