<svg xmlns="http://www.w3.org/2000/svg" viewBox="0 0 64 116" width="64" height="116">
	<title>Gold cross with chevrons</title>
	<defs>
		<radialGradient id="m066-metal" cx="35%" cy="28%" r="80%">
			<stop offset="0" stop-color="#fff1bf"/>
			<stop offset="0.5" stop-color="#d6a640"/>
			<stop offset="1" stop-color="#86601a"/>
		</radialGradient>
		<linearGradient id="m066-rim" x1="0" y1="0" x2="1" y2="1">
			<stop offset="0" stop-color="#fff1bf"/>
			<stop offset="1" stop-color="#86601a"/>
		</linearGradient>
		<linearGradient id="m066-gloss" x1="0" y1="0" x2="0" y2="1">
			<stop offset="0" stop-color="#fff" stop-opacity="0.35"/>
			<stop offset="0.45" stop-color="#fff" stop-opacity="0"/>
		</linearGradient>
		<linearGradient id="m066-fold" x1="0" y1="0" x2="1" y2="0">
			<stop offset="0" stop-color="#000" stop-opacity="0.35"/>
			<stop offset="0.2" stop-color="#000" stop-opacity="0"/>
			<stop offset="0.8" stop-color="#000" stop-opacity="0"/>
			<stop offset="1" stop-color="#000" stop-opacity="0.35"/>
		</linearGradient>
		<pattern id="m066-weave" width="1.6" height="1.6" patternUnits="userSpaceOnUse">
			<rect width="0.6" height="1.6" fill="#000" opacity="0.12"/>
		</pattern>
		<clipPath id="m066-ribbon"><polygon points="12,0 52,0 42,46 22,46"/></clipPath>
		<filter id="m066-shadow" x="-30%" y="-30%" width="160%" height="160%">
			<feDropShadow dx="0" dy="1.5" stdDeviation="1.2" flood-color="#000" flood-opacity="0.55"/>
		</filter>
	</defs>
	<g>
		<g clip-path="url(#m066-ribbon)">
			<rect x="12" y="0" width="7.8" height="48" fill="#56622e"/><rect x="19.8" y="0" width="1.95" height="48" fill="#c8642a"/><rect x="21.76" y="0" width="5.85" height="48" fill="#56622e"/><rect x="27.61" y="0" width="8.78" height="48" fill="#c8642a"/><rect x="36.39" y="0" width="5.85" height="48" fill="#56622e"/><rect x="42.24" y="0" width="1.95" height="48" fill="#c8642a"/><rect x="44.2" y="0" width="7.8" height="48" fill="#56622e"/>
			<rect x="12" y="0" width="40" height="48" fill="url(#m066-weave)"/>
			<rect x="12" y="0" width="40" height="48" fill="url(#m066-fold)"/>
		</g>
		<circle cx="32" cy="50" r="4" fill="none" stroke="url(#m066-rim)" stroke-width="2"/>
		<g transform="translate(32 84)" filter="url(#m066-shadow)">
			<path d="M-12,-26 L12,-26 L5,-5 L26,-12 L26,12 L5,5 L12,26 L-12,26 L-5,5 L-26,12 L-26,-12 L-5,-5 Z" fill="url(#m066-metal)" stroke="#4f3a0c" stroke-width="1"/><path d="M-12,-26 L12,-26 L5,-5 L26,-12 L26,12 L5,5 L12,26 L-12,26 L-5,5 L-26,12 L-26,-12 L-5,-5 Z" transform="scale(0.82)" fill="none" stroke="#86601a" stroke-width="0.9" opacity="0.8"/><circle r="11" fill="url(#m066-metal)" stroke="#4f3a0c" stroke-width="0.8"/><circle r="9.2" fill="none" stroke="#86601a" stroke-width="0.6"/>
			<g transform="scale(0.78)" fill="#4f3a0c" color="#4f3a0c"><path d="M-9,-3 L0,-9 L9,-3 L9,0 L0,-6 L-9,0 Z"/><path d="M-9,2 L0,-4 L9,2 L9,5 L0,-1 L-9,5 Z"/><path d="M-9,7 L0,1 L9,7 L9,10 L0,4 L-9,10 Z"/></g>
		</g>
	</g>
</svg>
